<?xml version="1.0" encoding="UTF-8" standalone="no"?>
<svg
   xmlns:dc="http://purl.org/dc/elements/1.1/"
   xmlns:cc="http://creativecommons.org/ns#"
   xmlns:rdf="http://www.w3.org/1999/02/22-rdf-syntax-ns#"
   xmlns:svg="http://www.w3.org/2000/svg"
   xmlns="http://www.w3.org/2000/svg"
   viewBox="0 0 816 778.54535"
   height="778.54535"
   width="816"
   xml:space="preserve"
   id="svg2"
   version="1.1"><metadata
     id="metadata8"><rdf:RDF><cc:Work
         rdf:about=""><dc:format>image/svg+xml</dc:format><dc:type
           rdf:resource="http://purl.org/dc/dcmitype/StillImage" /></cc:Work></rdf:RDF></metadata><defs
     id="defs6"><clipPath
       id="clipPath18"
       clipPathUnits="userSpaceOnUse"><path
         id="path16"
         d="M 0,583.909 H 612 V 0 H 0 Z" /></clipPath><clipPath
       id="clipPath30"
       clipPathUnits="userSpaceOnUse"><path
         id="path28"
         d="M 0,583.909 H 612 V 0 H 0 Z" /></clipPath><clipPath
       id="clipPath118"
       clipPathUnits="userSpaceOnUse"><path
         id="path116"
         d="M 0,583.909 H 612 V 0 H 0 Z" /></clipPath><clipPath
       id="clipPath126"
       clipPathUnits="userSpaceOnUse"><path
         id="path124"
         d="m 424.131,131.222 h 9.752 v -9.62 h -9.752 z" /></clipPath><clipPath
       id="clipPath142"
       clipPathUnits="userSpaceOnUse"><path
         id="path140"
         d="m 337.252,236.316 h 10.427 V 170.53 h -10.427 z" /></clipPath><clipPath
       id="clipPath158"
       clipPathUnits="userSpaceOnUse"><path
         id="path156"
         d="m 258.982,509.014 h 71.66 v -2.17 h -71.66 z" /></clipPath><clipPath
       id="clipPath174"
       clipPathUnits="userSpaceOnUse"><path
         id="path172"
         d="m 181.284,489.216 h 30.989 V 341.413 h -30.989 z" /></clipPath><clipPath
       id="clipPath190"
       clipPathUnits="userSpaceOnUse"><path
         id="path188"
         d="m 369.616,496.82 h 44.936 V 341.413 h -44.936 z" /></clipPath><clipPath
       id="clipPath206"
       clipPathUnits="userSpaceOnUse"><path
         id="path204"
         d="m 317.7,237.016 h 25.521 V 170.53 H 317.7 Z" /></clipPath><clipPath
       id="clipPath222"
       clipPathUnits="userSpaceOnUse"><path
         id="path220"
         d="m 445.462,131.222 h 37.877 V 74.7949 h -37.877 z" /></clipPath><clipPath
       id="clipPath238"
       clipPathUnits="userSpaceOnUse"><path
         id="path236"
         d="m 480.423,137.49 h 2.266 v -2.976 h -2.266 z" /></clipPath><clipPath
       id="clipPath254"
       clipPathUnits="userSpaceOnUse"><path
         id="path252"
         d="m 418.52,184.334 h 96.344 V 58.3076 H 418.52 Z" /></clipPath><clipPath
       id="clipPath270"
       clipPathUnits="userSpaceOnUse"><path
         id="path268"
         d="M 152.127,116.828 H 408.966 V 69.0449 H 152.127 Z" /></clipPath><clipPath
       id="clipPath286"
       clipPathUnits="userSpaceOnUse"><path
         id="path284"
         d="m 124.655,103.285 h 64.334 V 69.07 h -64.334 z" /></clipPath><clipPath
       id="clipPath302"
       clipPathUnits="userSpaceOnUse"><path
         id="path300"
         d="M 0,583.909 H 612 V 0 H 0 Z" /></clipPath><clipPath
       id="clipPath310"
       clipPathUnits="userSpaceOnUse"><path
         id="path308"
         d="m 166.179,330.449 h 93.812 v -41.596 h -93.812 z" /></clipPath><clipPath
       id="clipPath326"
       clipPathUnits="userSpaceOnUse"><path
         id="path324"
         d="m 171.219,497.014 h 31.644 V 354.23 h -31.644 z" /></clipPath><clipPath
       id="clipPath342"
       clipPathUnits="userSpaceOnUse"><path
         id="path340"
         d="m 110.765,330.214 h 42.251 v -41.588 h -42.251 z" /></clipPath><clipPath
       id="clipPath358"
       clipPathUnits="userSpaceOnUse"><path
         id="path356"
         d="m 480.423,137.49 h 2.266 v -2.976 h -2.266 z" /></clipPath><clipPath
       id="clipPath374"
       clipPathUnits="userSpaceOnUse"><path
         id="path372"
         d="m 392.09,171.684 h 16.377 V 122.989 H 392.09 Z" /></clipPath><clipPath
       id="clipPath390"
       clipPathUnits="userSpaceOnUse"><path
         id="path388"
         d="m 491.607,237.557 h 75.326 v -51.009 h -75.326 z" /></clipPath><clipPath
       id="clipPath406"
       clipPathUnits="userSpaceOnUse"><path
         id="path404"
         d="M 0,583.909 H 612 V 0 H 0 Z" /></clipPath></defs><g
     transform="matrix(1.3333333,0,0,-1.3333333,0,778.54533)"
     id="g10"><g
       id="g12"><g
         clip-path="url(#clipPath18)"
         id="g14"><g
           transform="translate(260.2431,494.1158)"
           id="g20"><path
             id="path22"
             style="fill:#020202;fill-opacity:1;fill-rule:nonzero;stroke:none"
             d="m 0,0 h 72.14 c 33.891,0 61.463,-27.592 61.464,-61.655 l 1.47,-82.404 H -59.989 l -1.474,82.595 C -61.463,-27.572 -33.891,0 0,0 m 336.358,-243.401 c -0.432,2.776 -1.74,5.298 -3.71,7.123 -1.989,1.828 -4.54,2.835 -7.183,2.835 -1.191,0 -2.371,-0.202 -3.464,-0.585 -1.331,-0.457 -2.669,-0.904 -4.112,-1.384 -2.758,-0.921 -5.61,-1.873 -8.534,-2.986 -0.096,-0.036 -1.736,-0.728 -1.736,-0.728 -1.922,-0.653 -3.861,-1.324 -5.823,-2.069 -0.092,-0.036 -2.996,-1.261 -2.996,-1.261 -3.166,-1.335 -6.44,-2.717 -9.762,-4.243 -0.099,-0.046 -12.394,-6.299 -12.394,-6.299 -0.158,-0.079 -0.314,-0.165 -0.465,-0.255 0,0 -12.067,-7.156 -12.161,-7.216 -3.485,-2.264 -7.63,-4.98 -11.933,-7.967 -0.08,-0.055 -11.715,-8.751 -11.715,-8.751 -0.091,-0.069 -0.18,-0.139 -0.269,-0.211 l -4.192,-3.415 v 60.196 c 0,33.385 -21.303,62.413 -52.539,72.679 l -1.799,90.302 c 0,57.156 -46.499,103.655 -103.655,103.655 H -5.776 c -57.156,0 -103.656,-46.521 -103.654,-103.868 l 1.743,-87.651 c -35.285,-6.926 -61.923,-38.538 -61.923,-75.117 v -140.63 c 0,-0.596 0.019,-1.188 0.039,-1.779 l 0.017,-0.525 c 1.24,-41.638 34.845,-74.255 76.502,-74.255 h 236.494 c 0.949,-1.921 2.087,-3.674 3.385,-5.203 3.87,-4.555 10.199,-7.276 16.93,-7.276 0.719,0 1.448,0.032 2.172,0.093 7.506,0.635 13.946,4.448 17.443,10.272 1.046,1.266 1.978,2.657 2.779,4.146 0,0 1.411,2.646 1.891,3.56 28.765,11.657 47.867,39.766 47.867,70.967 v 9.847 l 5.992,8.322 8.945,11.573 9.221,11.103 c 3.198,3.565 6.387,7.167 9.534,10.756 l 9.707,10.236 9.964,9.737 10.235,9.243 10.425,8.818 10.611,8.247 11.006,7.811 c 3.688,2.606 5.573,7.391 4.809,12.153" /></g></g></g><g
       id="g24"><g
         clip-path="url(#clipPath30)"
         id="g26"><g
           transform="translate(422.6311,134.5144)"
           id="g32"><path
             id="path34"
             style="fill:#d1d3d4;fill-opacity:1;fill-rule:nonzero;stroke:none"
             d="M 0,0 C -0.16,0 -0.305,0.092 -0.373,0.237 L -0.662,0.862 C -0.838,1.244 -1.013,1.625 -1.2,2.007 l -3.192,6.282 -3.283,6.162 c -0.726,1.297 -1.487,2.564 -2.28,3.885 l -1.233,2.061 -1.093,1.749 c -0.079,0.126 -0.083,0.286 -0.011,0.418 0.073,0.13 0.21,0.212 0.36,0.212 h 41.434 c 0.159,0 0.305,-0.094 0.372,-0.238 0.069,-0.146 0.046,-0.317 -0.058,-0.439 C 26.698,18.184 23.584,14.131 19.913,9.223 L 15.313,2.437 13.855,0.188 C 13.779,0.071 13.649,0 13.51,0 Z" /></g><g
           transform="translate(150.4931,134.5144)"
           id="g36"><path
             id="path38"
             style="fill:#d1d3d4;fill-opacity:1;fill-rule:nonzero;stroke:none"
             d="m 0,0 c -0.227,0 -0.412,0.185 -0.412,0.412 v 21.952 c 0,0.227 0.185,0.412 0.412,0.412 h 234.714 c 0.17,0 0.322,-0.105 0.384,-0.263 l 1.421,-3.674 2.383,-6.49 2.277,-6.552 1.726,-5.256 c 0.041,-0.126 0.02,-0.264 -0.058,-0.37 C 242.77,0.063 242.645,0 242.514,0 Z" /></g><g
           transform="translate(428.3449,121.6026)"
           id="g40"><path
             id="path42"
             style="fill:#fbb040;fill-opacity:1;fill-rule:nonzero;stroke:none"
             d="m 0,0 c -0.159,0.009 -0.297,0.11 -0.358,0.256 l -0.636,1.548 -2.898,6.614 -0.284,0.618 c -0.059,0.128 -0.049,0.275 0.027,0.394 0.075,0.118 0.206,0.19 0.347,0.19 H 5.126 C 5.277,9.62 5.415,9.537 5.488,9.405 5.56,9.272 5.553,9.11 5.472,8.984 L 5.067,8.359 C 4.63,7.599 4.176,6.828 3.632,5.901 2.661,4.249 1.736,2.675 0.848,1.056 L 0.385,0.213 C 0.313,0.08 0.174,-0.001 0.024,-0.001 0.016,-0.001 0.008,0 0,0" /></g><g
           transform="translate(150.4931,255.2508)"
           id="g44"><path
             id="path46"
             style="fill:#d1d3d4;fill-opacity:1;fill-rule:nonzero;stroke:none"
             d="m 0,0 c -0.227,0 -0.412,0.185 -0.412,0.412 v 17.836 c 0,1.563 0.063,3.189 0.187,4.833 0.016,0.214 0.195,0.381 0.41,0.381 h 332.06 c 0.227,0 0.412,-0.185 0.412,-0.412 V 0.412 C 332.657,0.185 332.472,0 332.245,0 Z" /></g><g
           transform="translate(151.1473,282.0049)"
           id="g48"><path
             id="path50"
             style="fill:#fbb040;fill-opacity:1;fill-rule:nonzero;stroke:none"
             d="m 0,0 c -0.12,0 -0.232,0.052 -0.311,0.142 -0.078,0.09 -0.113,0.21 -0.097,0.327 1.443,10.201 5.217,19.632 11.221,28.031 0.971,1.359 2.055,2.739 3.313,4.219 0,0 0.561,0.681 0.704,0.843 6.014,6.841 13.567,12.423 21.842,16.142 l 0.25,0.107 c 1.463,0.653 2.682,1.155 3.838,1.58 7.033,2.589 14.425,3.901 21.972,3.901 h 205.714 c 3.774,0 7.628,-0.354 11.454,-1.05 1.517,-0.275 2.87,-0.565 4.135,-0.884 25.233,-6.36 43.889,-27.12 47.53,-52.889 0.016,-0.117 -0.019,-0.237 -0.097,-0.327 C 331.389,0.052 331.277,0 331.157,0 Z" /></g><g
           transform="translate(341.7104,169.2956)"
           id="g52"><path
             id="path54"
             style="fill:#1c75bc;fill-opacity:1;fill-rule:nonzero;stroke:none"
             d="m 0,0 v 39.237 c 0,0.136 0.066,0.261 0.178,0.339 4.399,3.04 7.025,8.031 7.025,13.348 0,8.947 -7.277,16.224 -16.224,16.224 -0.66,0 -1.351,-0.051 -2.174,-0.163 -2.524,-0.34 -4.955,-1.279 -7.03,-2.716 -4.396,-3.041 -7.02,-8.031 -7.02,-13.345 0,-5.144 2.501,-10.04 6.692,-13.098 0.105,-0.078 0.169,-0.201 0.169,-0.333 V 0 Z m 66.22,-8.713 c -0.134,0 -0.261,0.066 -0.338,0.177 l -0.883,1.277 c -0.927,1.308 -1.89,2.665 -2.926,3.951 l -1.065,1.314 c -0.997,1.235 -2.028,2.513 -3.119,3.7 L 55.67,4.117 53.402,6.372 c -1.48,1.378 -3.087,2.726 -4.766,3.999 l -0.353,0.268 c -0.347,0.261 -0.745,0.4 -1.148,0.4 -0.488,0 -0.955,-0.197 -1.351,-0.571 -0.09,-0.084 -0.173,-0.187 -0.265,-0.323 C 45.458,10.053 45.362,9.99 45.252,9.969 43.014,9.56 38.632,8.037 38.228,7.67 37.169,6.673 36.858,4.684 37.522,3.14 l 2.716,-6.319 2.02,-4.968 c 0.052,-0.126 0.037,-0.271 -0.04,-0.385 -0.076,-0.113 -0.205,-0.181 -0.341,-0.181 h -233.094 c -0.227,0 -0.412,0.185 -0.412,0.412 v 90.552 c 0,0.227 0.185,0.412 0.412,0.412 h 332.486 c 0.227,0 0.412,-0.185 0.412,-0.412 V 21.329 c 0,-0.11 -0.044,-0.215 -0.121,-0.292 -1.086,-1.079 -2.181,-2.159 -3.395,-3.354 -2.34,-2.308 -4.687,-4.621 -7.038,-7.04 l -10.383,-11.45 -6.538,-7.76 c -0.079,-0.092 -0.193,-0.146 -0.315,-0.146 z" /></g><g
           transform="translate(337.6637,170.5296)"
           id="g56"><path
             id="path58"
             style="fill:#58595b;fill-opacity:1;fill-rule:nonzero;stroke:none"
             d="m 0,0 c -0.227,0 -0.412,0.185 -0.412,0.412 v 37.591 c 0,0.135 0.066,0.261 0.178,0.339 4.399,3.041 7.025,8.032 7.025,13.348 0,5.313 -2.624,10.303 -7.02,13.345 -0.171,0.118 -0.226,0.344 -0.132,0.528 0.073,0.141 0.216,0.223 0.366,0.223 0.047,0 0.094,-0.008 0.141,-0.025 5.903,-2.156 9.87,-7.81 9.87,-14.071 0,-4.386 -1.929,-8.544 -5.29,-11.407 C 4.144,39.788 3.502,39.324 2.813,38.904 V 0.412 C 2.813,0.185 2.628,0 2.401,0 Z" /></g><g
           transform="translate(430.4753,340.5146)"
           id="g60"><path
             id="path62"
             style="fill:#bcbec0;fill-opacity:1;fill-rule:nonzero;stroke:none"
             d="m 0,0 c -3.671,0.596 -7.333,0.898 -10.882,0.898 h -10.954 c -0.224,0 -0.408,0.18 -0.412,0.405 l -1.621,90.827 c 0,40.934 -33.296,74.231 -74.223,74.231 h -72.14 c -40.927,0 -74.223,-33.316 -74.223,-74.267 l 1.62,-90.777 c 0.001,-0.11 -0.042,-0.217 -0.119,-0.295 -0.077,-0.078 -0.183,-0.124 -0.293,-0.124 h -20.037 c -0.366,0 -0.729,-0.012 -1.092,-0.024 h -0.016 c -0.114,0 -0.314,0.037 -0.39,0.109 -0.081,0.076 -0.235,0.177 -0.238,0.287 l -1.884,94.687 c 0,50.128 40.776,90.903 90.896,90.903 h 83.692 c 50.12,0 90.895,-40.797 90.895,-90.944 L 0.478,0.414 C 0.48,0.292 0.428,0.175 0.336,0.095 0.26,0.03 0.165,-0.006 0.066,-0.006 0.044,-0.006 0.022,-0.004 0,0" /></g><g
           transform="translate(430.8993,115.0919)"
           id="g64"><path
             id="path66"
             style="fill:#00a79d;fill-opacity:1;fill-rule:nonzero;stroke:none"
             d="M 0,0 C -0.164,0.008 -0.307,0.112 -0.366,0.265 -0.7,1.148 -1.046,2.052 -1.403,2.966 -1.447,3.08 -1.438,3.208 -1.38,3.314 L 0.053,5.92 c 0.852,1.552 1.738,3.062 2.693,4.69 0.518,0.88 1.014,1.727 1.458,2.499 l 4.482,6.906 4.549,6.716 c 3.669,4.903 6.745,8.904 9.692,12.611 l 10.065,11.946 10.327,11.387 c 2.355,2.422 4.733,4.764 7.109,7.102 l 0.16,0.159 c 0.08,0.08 0.185,0.12 0.29,0.12 0.105,0 0.211,-0.04 0.291,-0.121 0.16,-0.161 0.161,-0.42 0.001,-0.581 L 49.492,67.645 39.11,56.193 28.994,44.19 C 28.311,43.33 27.611,42.44 26.902,41.533 24.538,38.511 22.044,35.243 19.2,31.443 L 14.602,24.657 10.067,17.666 8.591,15.138 C 7.664,13.561 6.74,11.984 5.85,10.363 L 1.743,2.895 C 1.279,2.018 0.827,1.121 0.389,0.229 0.319,0.088 0.176,-0.001 0.019,-0.001 0.013,-0.001 0.006,0 0,0" /></g><g
           transform="translate(324.972,170.5296)"
           id="g68"><path
             id="path70"
             style="fill:#231f20;fill-opacity:1;fill-rule:nonzero;stroke:none"
             d="M 0,0 C -0.227,0 -0.412,0.185 -0.412,0.412 V 39.12 c -0.675,0.438 -1.321,0.937 -1.922,1.484 -3.139,2.846 -4.938,6.888 -4.938,11.086 0,7.317 5.458,13.678 12.696,14.796 7.365,-1.118 12.825,-7.479 12.825,-14.796 0,-4.386 -1.929,-8.544 -5.29,-11.407 -0.582,-0.495 -1.224,-0.959 -1.913,-1.379 V 0.412 C 11.046,0.185 10.861,0 10.634,0 Z" /></g><g
           transform="translate(423.9967,55.2819)"
           id="g72"><path
             id="path74"
             style="fill:#00a79d;fill-opacity:1;fill-rule:nonzero;stroke:none"
             d="m 0,0 c -3.695,0 -7.014,1.31 -8.878,3.505 -1.285,1.513 -2.284,3.41 -2.969,5.634 -0.153,0.498 -0.306,0.994 -0.421,1.513 l -1.099,7.042 -1.205,6.991 -1.314,6.969 -1.425,6.947 -1.537,6.913 -1.644,6.885 -1.755,6.844 -1.863,6.806 -1.973,6.759 -2.08,6.714 -2.186,6.657 -2.293,6.605 -2.402,6.543 -2.509,6.478 -2.599,6.391 -2.728,6.344 c -0.069,0.164 -0.078,0.335 -0.033,0.59 0.024,0.135 0.115,0.25 0.24,0.304 0.669,0.291 2.928,1.031 4.732,1.514 0.036,0.009 0.072,0.014 0.107,0.014 0.074,0 0.148,-0.02 0.212,-0.059 0.096,-0.058 0.165,-0.152 0.189,-0.261 0.056,-0.243 0.131,-0.473 0.224,-0.691 l 2.715,-6.319 2.579,-6.337 2.486,-6.426 2.382,-6.489 2.277,-6.553 2.171,-6.605 2.061,-6.659 1.958,-6.706 1.847,-6.752 1.742,-6.789 1.63,-6.829 1.524,-6.859 1.413,-6.891 1.305,-6.914 1.194,-6.932 1.116,-7.129 c 0.23,-1.041 0.564,-2.114 1.046,-3.353 C -4.964,7.354 -3.962,5.606 -2.784,4.218 -1.46,2.66 0.044,1.533 1.69,0.87 1.866,0.799 1.971,0.618 1.944,0.431 1.917,0.243 1.767,0.098 1.579,0.079 L 1.308,0.053 C 0.866,0.017 0.431,0 0,0" /></g><g
           transform="translate(104.4491,282.0049)"
           id="g76"><path
             id="path78"
             style="fill:#fbb040;fill-opacity:1;fill-rule:nonzero;stroke:none"
             d="m 0,0 c -0.12,0 -0.233,0.052 -0.312,0.143 -0.077,0.09 -0.112,0.21 -0.095,0.328 4.197,28.994 28.334,51.935 57.39,54.549 0.007,10e-4 0.214,0.012 0.221,0.012 1.26,0.1 2.364,0.161 3.474,0.195 l 0.966,0.04 c 0.365,0.013 0.729,0.025 1.098,0.025 h 20.124 c 0.224,0 0.408,-0.18 0.412,-0.405 l 0.008,-0.446 C 83.289,54.273 83.19,54.12 83.035,54.055 74.919,50.618 67.644,45.712 61.412,39.474 60.275,38.324 59.226,37.185 58.083,35.86 L 57.38,35.058 C 49.084,25.161 43.801,13.162 42.102,0.358 42.075,0.154 41.9,0 41.694,0 Z" /></g><g
           transform="translate(445.8742,74.7949)"
           id="g80"><path
             id="path82"
             style="fill:#fbb040;fill-opacity:1;fill-rule:nonzero;stroke:none"
             d="M 0,0 C -0.11,0 -0.218,0.044 -0.297,0.128 -0.419,0.254 -0.446,0.443 -0.367,0.6 l 0.996,1.945 c 1.628,2.943 3.212,5.921 4.795,8.901 0,0 1.851,3.485 2.666,5.004 2.67,4.626 5.265,9.14 7.717,13.635 l 7.951,13.348 c 3.217,4.999 5.795,9.069 8.104,12.8 0.074,0.12 0.207,0.195 0.35,0.195 h 4.841 c 0.112,0 0.218,-0.046 0.296,-0.126 0.077,-0.08 0.119,-0.188 0.115,-0.3 C 36.682,31.656 22.392,10.212 0.172,0.038 0.117,0.013 0.058,0 0,0" /></g><g
           transform="translate(480.8343,134.5144)"
           id="g84"><path
             id="path86"
             style="fill:#d1d3d4;fill-opacity:1;fill-rule:nonzero;stroke:none"
             d="m 0,0 c -0.152,0 -0.291,0.084 -0.363,0.218 -0.072,0.135 -0.063,0.298 0.021,0.423 l 1.443,2.152 c 0.078,0.116 0.207,0.182 0.342,0.182 0.04,0 0.08,-0.006 0.12,-0.018 C 1.736,2.904 1.855,2.744 1.855,2.563 V 0.412 C 1.855,0.185 1.67,0 1.443,0 Z" /></g><g
           transform="translate(428.98,58.3076)"
           id="g88"><path
             id="path90"
             style="fill:#00a79d;fill-opacity:1;fill-rule:nonzero;stroke:none"
             d="m 0,0 c -2.305,0 -4.486,1.134 -6.306,3.277 -0.662,0.779 -1.261,1.698 -1.831,2.811 -0.701,1.373 -1.226,2.831 -1.559,4.336 l -1.098,7.042 -1.205,6.991 -1.315,6.969 -1.426,6.946 -1.536,6.913 -1.642,6.886 -1.758,6.844 -1.863,6.806 -1.916,6.566 -2.135,6.907 -2.187,6.657 -2.294,6.605 -2.403,6.544 -2.506,6.477 -2.6,6.39 -2.73,6.39 c -0.033,0.168 0.02,0.409 0.166,0.499 0.091,0.058 0.191,0.103 0.285,0.103 0.056,0 0.112,-0.016 0.162,-0.055 0.375,-0.285 0.736,-0.578 1.099,-0.874 l 0.335,-0.27 c 1.243,-1.003 2.227,-1.846 3.096,-2.654 l 2.205,-2.193 2.183,-2.373 c 1.045,-1.139 2.064,-2.401 3.049,-3.621 l 1.037,-1.281 c 0.703,-0.87 1.374,-1.791 2.034,-2.711 l 0.857,-1.198 2.788,-4.03 1.777,-2.847 1.219,-2.037 c 0.76,-1.265 1.521,-2.529 2.229,-3.795 l 3.257,-6.116 3.102,-6.098 c 0.693,-1.419 1.292,-2.726 1.936,-4.132 l 1.106,-2.403 2.873,-6.553 C -3,62.476 -2.501,61.233 -2.013,59.994 l 0.718,-1.826 c 0.75,-1.939 1.459,-3.821 2.101,-5.546 l 0.518,-1.393 c 0.061,-0.162 0.207,-0.259 0.403,-0.268 0.14,0.001 0.286,0.093 0.353,0.236 L 2.697,52.5 c 0.849,1.798 1.761,3.708 2.735,5.552 l 4.096,7.45 c 0.886,1.612 1.805,3.177 2.726,4.743 0.494,0.841 0.986,1.68 1.426,2.446 l 4.481,6.906 4.548,6.715 c 3.634,4.855 6.687,8.827 9.616,12.515 l 10.142,12.041 10.325,11.388 0.914,0.924 c 1.61,1.636 3.254,3.272 4.944,4.941 l 1.6,1.582 c 1.087,1.071 2.162,2.129 3.19,3.158 l 10.905,9.987 5.576,4.703 5.574,4.543 11.403,8.524 c 4.05,2.812 8.127,5.486 11.583,7.733 l 11.763,6.976 11.993,6.102 c 3.077,1.41 6.307,2.775 9.432,4.095 l 2.677,1.131 c 2.177,0.827 4.374,1.574 6.54,2.301 l 1.871,0.63 c 1.214,0.406 2.4,0.801 3.69,1.191 0.038,0.012 0.079,0.018 0.119,0.018 0.082,0 0.164,-0.025 0.233,-0.073 0.104,-0.071 0.169,-0.185 0.177,-0.311 0.014,-0.186 -0.026,-0.341 -0.041,-0.393 0,-0.132 -0.054,-0.169 -0.162,-0.247 l -11.221,-7.961 -10.971,-8.527 -10.726,-9.074 -10.525,-9.505 -10.266,-10.031 -9.998,-10.546 c -3.22,-3.67 -6.451,-7.322 -9.734,-10.978 L 73.854,111.734 64.675,99.857 55.8,87.53 47.241,74.766 45.696,72.285 c -1.985,-3.178 -4.159,-6.598 -6.73,-10.59 L 30.964,48.26 C 28.51,43.762 26.112,39.587 23.233,34.598 L 20.714,29.873 C 19.08,26.797 17.446,23.721 15.75,20.65 L 12.785,14.862 C 11.731,12.804 10.652,10.723 9.548,8.628 L 8.022,5.742 C 7.463,4.699 6.79,3.748 6.021,2.916 4.284,1.036 2.145,0 0,0" /></g><g
           transform="translate(103.805,255.2508)"
           id="g92"><path
             id="path94"
             style="fill:#d1d3d4;fill-opacity:1;fill-rule:nonzero;stroke:none"
             d="m 0,0 c -0.227,0 -0.412,0.185 -0.412,0.412 v 17.836 c 0,1.486 0.067,3.068 0.205,4.834 0.016,0.214 0.195,0.38 0.41,0.38 h 41.731 c 0.115,0 0.223,-0.048 0.301,-0.132 0.078,-0.083 0.118,-0.195 0.11,-0.309 C 42.22,21.272 42.16,19.712 42.16,18.248 V 0.412 C 42.16,0.185 41.975,0 41.748,0 Z" /></g><g
           transform="translate(396.1834,69.0539)"
           id="g96"><path
             id="path98"
             style="fill:#fbb040;fill-opacity:1;fill-rule:nonzero;stroke:none"
             d="M 0,0 C -0.038,0.008 -0.104,0.033 -0.139,0.051 L -182.304,0.016 c -34.633,0 -62.634,27.114 -63.745,61.727 -0.004,0.112 0.038,0.219 0.116,0.3 0.077,0.08 0.183,0.125 0.295,0.125 H -1.876 c 0.18,0 0.34,-0.117 0.393,-0.29 l 1.204,-3.885 1.955,-6.705 1.847,-6.751 1.743,-6.79 1.632,-6.83 1.523,-6.858 1.415,-6.891 1.303,-6.913 1.194,-6.934 0.445,-2.842 C 12.796,0.361 12.762,0.24 12.684,0.149 12.606,0.057 12.492,0.005 12.371,0.004 L 0.083,-0.009 C 0.055,-0.009 0.027,-0.006 0,0" /></g><g
           transform="translate(103.805,160.5822)"
           id="g100"><path
             id="path102"
             style="fill:#1c75bc;fill-opacity:1;fill-rule:nonzero;stroke:none"
             d="m 0,0 c -0.227,0 -0.412,0.185 -0.412,0.412 v 90.553 c 0,0.227 0.185,0.412 0.412,0.412 h 41.748 c 0.227,0 0.412,-0.185 0.412,-0.412 V 0.412 C 42.16,0.185 41.975,0 41.748,0 Z" /></g><g
           transform="translate(167.1914,69.07)"
           id="g104"><path
             id="path106"
             style="fill:#fbb040;fill-opacity:1;fill-rule:nonzero;stroke:none"
             d="m 0,0 c -34.633,0 -62.634,27.114 -63.745,61.727 -0.004,0.112 0.038,0.219 0.115,0.3 0.078,0.08 0.184,0.125 0.296,0.125 h 41.776 c 0.222,0 0.405,-0.176 0.411,-0.399 C -20.324,34.808 -3.568,10.881 21.54,0.794 21.723,0.721 21.827,0.528 21.79,0.334 21.753,0.141 21.583,0 21.386,0 Z" /></g><g
           transform="translate(103.805,134.5144)"
           id="g108"><path
             id="path110"
             style="fill:#d1d3d4;fill-opacity:1;fill-rule:nonzero;stroke:none"
             d="m 0,0 c -0.227,0 -0.412,0.185 -0.412,0.412 v 21.952 c 0,0.227 0.185,0.412 0.412,0.412 h 41.748 c 0.227,0 0.412,-0.185 0.412,-0.412 V 0.412 C 42.16,0.185 41.975,0 41.748,0 Z" /></g></g></g><g
       id="g112"><g
         clip-path="url(#clipPath118)"
         id="g114"><g
           id="g120"><g
             id="g122" /><g
             id="g134"><g
               style="opacity:0.14999402"
               id="g132"
               clip-path="url(#clipPath126)"><g
                 id="g130"
                 transform="translate(428.3449,121.6026)"><path
                   id="path128"
                   style="fill:#414042;fill-opacity:1;fill-rule:nonzero;stroke:none"
                   d="m 0,0 c -0.159,0.009 -0.297,0.11 -0.358,0.256 l -0.636,1.548 -2.898,6.614 -0.284,0.618 c -0.059,0.128 -0.049,0.275 0.027,0.394 0.075,0.118 0.206,0.19 0.347,0.19 H 5.126 C 5.277,9.62 5.415,9.537 5.488,9.405 5.56,9.272 5.553,9.11 5.472,8.984 L 5.067,8.359 C 4.63,7.599 4.176,6.828 3.632,5.901 2.661,4.249 1.736,2.675 0.848,1.056 L 0.385,0.213 C 0.313,0.08 0.174,-0.001 0.024,-0.001 0.016,-0.001 0.008,0 0,0" /></g></g></g></g><g
           id="g136"><g
             id="g138" /><g
             id="g150"><g
               style="opacity:0.14999402"
               id="g148"
               clip-path="url(#clipPath142)"><g
                 id="g146"
                 transform="translate(337.6637,170.5296)"><path
                   id="path144"
                   style="fill:#414042;fill-opacity:1;fill-rule:nonzero;stroke:none"
                   d="m 0,0 c -0.227,0 -0.412,0.185 -0.412,0.412 v 37.591 c 0,0.135 0.066,0.261 0.178,0.339 4.399,3.041 7.025,8.032 7.025,13.348 0,5.313 -2.624,10.303 -7.02,13.345 -0.171,0.118 -0.226,0.344 -0.132,0.528 0.073,0.141 0.216,0.223 0.366,0.223 0.047,0 0.094,-0.008 0.141,-0.025 5.903,-2.156 9.87,-7.81 9.87,-14.071 0,-4.386 -1.929,-8.544 -5.29,-11.407 C 4.144,39.788 3.502,39.324 2.813,38.904 V 0.412 C 2.813,0.185 2.628,0 2.401,0 Z" /></g></g></g></g><g
           id="g152"><g
             id="g154" /><g
             id="g166"><g
               style="opacity:0.14999402"
               id="g164"
               clip-path="url(#clipPath158)"><g
                 id="g162"
                 transform="translate(278.8437,508.8092)"><path
                   id="path160"
                   style="fill:#414042;fill-opacity:1;fill-rule:nonzero;stroke:none"
                   d="m 0,0 c -6.341,-0.168 -13.052,-0.812 -19.861,-1.965 0.421,0.007 0.838,0.032 1.26,0.032 H 51.798 C 34.163,0.36 16.133,0.427 0,0" /></g></g></g></g><g
           id="g168"><g
             id="g170" /><g
             id="g182"><g
               style="opacity:0.14999402"
               id="g180"
               clip-path="url(#clipPath174)"><g
                 id="g178"
                 transform="translate(212.2728,489.2155)"><path
                   id="path176"
                   style="fill:#414042;fill-opacity:1;fill-rule:nonzero;stroke:none"
                   d="m 0,0 c -11.849,-7.966 -21.365,-18.565 -26.15,-32.195 -6.719,-19.141 -4.718,-39.014 -3.98,-58.865 0.703,-18.907 1.06,-37.823 1.155,-56.743 h 3.93 c 0.111,0 0.216,0.046 0.293,0.124 0.078,0.078 0.12,0.185 0.119,0.295 l -1.62,90.777 C -26.253,-33.944 -16.044,-13.633 0,0" /></g></g></g></g><g
           id="g184"><g
             id="g186" /><g
             id="g198"><g
               style="opacity:0.14999402"
               id="g196"
               clip-path="url(#clipPath190)"><g
                 id="g194"
                 transform="translate(412.8062,345.5294)"><path
                   id="path192"
                   style="fill:#414042;fill-opacity:1;fill-rule:nonzero;stroke:none"
                   d="m 0,0 c -0.12,12.656 1.164,25.238 1.585,37.872 0.643,19.315 -0.621,39.197 -4.158,58.19 -3.106,16.669 -8.248,34.35 -22.495,44.916 -5.567,4.128 -11.661,7.523 -18.122,10.313 22.096,-12.872 36.99,-36.808 36.99,-64.176 l 1.621,-90.826 c 0.004,-0.226 0.188,-0.405 0.412,-0.405 h 4.18 C 0.007,-2.658 0.012,-1.265 0,0" /></g></g></g></g><g
           id="g200"><g
             id="g202" /><g
             id="g214"><g
               style="opacity:0.14999402"
               id="g212"
               clip-path="url(#clipPath206)"><g
                 id="g210"
                 transform="translate(324.972,170.5296)"><path
                   id="path208"
                   style="fill:#414042;fill-opacity:1;fill-rule:nonzero;stroke:none"
                   d="M 0,0 C -0.227,0 -0.412,0.185 -0.412,0.412 V 39.12 c -0.675,0.438 -1.321,0.937 -1.922,1.484 -3.139,2.846 -4.938,6.888 -4.938,11.086 0,7.317 5.458,13.678 12.696,14.796 7.365,-1.118 12.825,-7.479 12.825,-14.796 0,-4.386 -1.929,-8.544 -5.29,-11.407 -0.582,-0.495 -1.224,-0.959 -1.913,-1.379 V 0.412 C 11.046,0.185 10.861,0 10.634,0 Z" /></g></g></g></g><g
           id="g216"><g
             id="g218" /><g
             id="g230"><g
               style="opacity:0.14999402"
               id="g228"
               clip-path="url(#clipPath222)"><g
                 id="g226"
                 transform="translate(445.8742,74.7949)"><path
                   id="path224"
                   style="fill:#414042;fill-opacity:1;fill-rule:nonzero;stroke:none"
                   d="M 0,0 C -0.11,0 -0.218,0.044 -0.297,0.128 -0.419,0.254 -0.446,0.443 -0.367,0.6 l 0.996,1.945 c 1.628,2.943 3.212,5.921 4.795,8.901 0,0 1.851,3.485 2.666,5.004 2.67,4.626 5.265,9.14 7.717,13.635 l 7.951,13.348 c 3.217,4.999 5.795,9.069 8.104,12.8 0.074,0.12 0.207,0.195 0.35,0.195 h 4.841 c 0.112,0 0.218,-0.046 0.296,-0.126 0.077,-0.08 0.119,-0.188 0.115,-0.3 C 36.682,31.656 22.392,10.212 0.172,0.038 0.117,0.013 0.058,0 0,0" /></g></g></g></g><g
           id="g232"><g
             id="g234" /><g
             id="g246"><g
               style="opacity:0.14999402"
               id="g244"
               clip-path="url(#clipPath238)"><g
                 id="g242"
                 transform="translate(480.8343,134.5144)"><path
                   id="path240"
                   style="fill:#414042;fill-opacity:1;fill-rule:nonzero;stroke:none"
                   d="m 0,0 c -0.152,0 -0.291,0.084 -0.363,0.218 -0.072,0.135 -0.063,0.298 0.021,0.423 l 1.443,2.152 c 0.078,0.116 0.207,0.182 0.342,0.182 0.04,0 0.08,-0.006 0.12,-0.018 C 1.736,2.904 1.855,2.744 1.855,2.563 V 0.412 C 1.855,0.185 1.67,0 1.443,0 Z" /></g></g></g></g><g
           id="g248"><g
             id="g250" /><g
             id="g262"><g
               style="opacity:0.14999402"
               id="g260"
               clip-path="url(#clipPath254)"><g
                 id="g258"
                 transform="translate(474.5384,141.1783)"><path
                   id="path256"
                   style="fill:#414042;fill-opacity:1;fill-rule:nonzero;stroke:none"
                   d="m 0,0 c -10.038,-13.426 -22.355,-27.56 -28.896,-43.12 -3.357,-7.986 -5.705,-18.969 -12.928,-24.506 -5.385,-4.129 -10.1,-3.494 -14.194,0.081 l 0.763,-4.902 c 0.334,-1.504 0.859,-2.962 1.56,-4.336 0.57,-1.112 1.169,-2.032 1.831,-2.811 1.82,-2.143 4,-3.277 6.306,-3.277 2.145,0 4.283,1.036 6.021,2.917 0.769,0.832 1.442,1.782 2.001,2.825 l 1.526,2.886 c 1.103,2.096 2.183,4.177 3.237,6.235 l 2.964,5.788 c 1.696,3.071 3.33,6.147 4.964,9.223 l 2.52,4.725 c 2.879,4.988 5.276,9.163 7.73,13.661 l 8.002,13.435 c 2.572,3.992 4.745,7.413 6.731,10.59 l 1.544,2.481 8.56,12.764 8.874,12.327 9.18,11.877 9.478,11.415 c 0.861,0.959 1.697,1.92 2.551,2.878 C 25.608,30.074 11.906,15.925 0,0" /></g></g></g></g><g
           id="g264"><g
             id="g266" /><g
             id="g278"><g
               style="opacity:0.14999402"
               id="g276"
               clip-path="url(#clipPath270)"><g
                 id="g274"
                 transform="translate(407.3226,79.3088)"><path
                   id="path272"
                   style="fill:#414042;fill-opacity:1;fill-rule:nonzero;stroke:none"
                   d="m 0,0 -1.303,6.913 -1.415,6.891 -1.309,5.891 c -6.994,-2.752 -14.741,-4.084 -21.887,-5.63 -12.109,-2.619 -24.204,-4.965 -36.479,-6.7 -28.772,-4.068 -58.051,-6.012 -87.071,-3.843 -26.466,1.978 -55.772,4.412 -80.383,14.931 -9.202,3.933 -18.632,10.632 -25.348,19.066 7.066,-27.665 31.943,-47.758 61.752,-47.758 l 182.165,0.035 c 0.034,-0.018 0.101,-0.043 0.139,-0.051 0.027,-0.006 0.055,-0.009 0.083,-0.009 l 12.288,0.013 c 0.121,10e-4 0.235,0.053 0.312,0.145 0.079,0.091 0.113,0.212 0.095,0.33 l -0.445,2.842 z" /></g></g></g></g><g
           id="g280"><g
             id="g282" /><g
             id="g294"><g
               style="opacity:0.14999402"
               id="g292"
               clip-path="url(#clipPath286)"><g
                 id="g290"
                 transform="translate(188.7312,69.8639)"><path
                   id="path288"
                   style="fill:#414042;fill-opacity:1;fill-rule:nonzero;stroke:none"
                   d="m 0,0 c -16.023,6.437 -28.618,18.524 -35.868,33.421 0.774,-8.185 -0.956,-15.339 -11.781,-18.719 -5.911,-1.845 -11.398,-1.341 -16.427,0.626 11.269,-10.052 26.158,-16.122 42.536,-16.122 h 21.386 c 0.197,0 0.367,0.141 0.404,0.334 C 0.287,-0.266 0.183,-0.073 0,0" /></g></g></g></g></g></g><g
       id="g296"><g
         clip-path="url(#clipPath302)"
         id="g298"><g
           id="g304"><g
             id="g306" /><g
             id="g318"><g
               style="opacity:0.5"
               id="g316"
               clip-path="url(#clipPath310)"><g
                 id="g314"
                 transform="translate(194.4999,298.3959)"><path
                   id="path312"
                   style="fill:#e6e7e8;fill-opacity:1;fill-rule:nonzero;stroke:none"
                   d="m 0,0 c -0.872,11.365 11.11,17.833 20.06,21.484 14.035,5.724 29.332,8.357 44.278,10.422 0.383,0.053 0.769,0.095 1.153,0.147 H 19.183 c -5.678,0 -11.239,-0.987 -16.53,-2.934 -0.87,-0.32 -1.787,-0.698 -2.888,-1.189 l -0.187,-0.081 c -6.226,-2.798 -11.908,-6.997 -16.432,-12.143 -0.108,-0.122 -0.53,-0.634 -0.53,-0.634 -0.947,-1.114 -1.762,-2.152 -2.493,-3.175 -4.516,-6.318 -7.356,-13.413 -8.441,-21.087 -0.012,-0.089 0.014,-0.179 0.073,-0.247 0.059,-0.067 0.144,-0.106 0.234,-0.106 H 3.865 C 1.717,-7.092 0.306,-3.988 0,0" /></g></g></g></g><g
           id="g320"><g
             id="g322" /><g
             id="g334"><g
               style="opacity:0.5"
               id="g332"
               clip-path="url(#clipPath326)"><g
                 id="g330"
                 transform="translate(176.2976,424.3329)"><path
                   id="path328"
                   style="fill:#e6e7e8;fill-opacity:1;fill-rule:nonzero;stroke:none"
                   d="m 0,0 c 0.036,18.045 0.537,37.178 10.187,53.068 4.336,7.139 10.04,13.668 16.379,19.613 C 7.4,58.653 -5.079,36.005 -5.079,10.485 l 1.597,-80.252 c 0.003,-0.094 0.134,-0.179 0.202,-0.244 0.065,-0.06 0.234,-0.092 0.33,-0.092 h 0.014 c 0.307,0.01 0.616,0.021 0.926,0.021 h 1.992 C -0.539,-46.727 -0.047,-23.358 0,0" /></g></g></g></g><g
           id="g336"><g
             id="g338" /><g
             id="g350"><g
               style="opacity:0.5"
               id="g348"
               clip-path="url(#clipPath342)"><g
                 id="g346"
                 transform="translate(128.7668,309.7936)"><path
                   id="path344"
                   style="fill:#e6e7e8;fill-opacity:1;fill-rule:nonzero;stroke:none"
                   d="M 0,0 C 6.183,8.755 14.725,15.336 24.249,20.42 2.786,17.891 -14.877,0.753 -17.999,-20.81 c -0.013,-0.09 0.014,-0.181 0.073,-0.249 0.059,-0.069 0.145,-0.109 0.236,-0.109 h 7.539 C -8.671,-13.406 -3.303,-4.677 0,0" /></g></g></g></g><g
           id="g352"><g
             id="g354" /><g
             id="g366"><g
               style="opacity:0.5"
               id="g364"
               clip-path="url(#clipPath358)"><g
                 id="g362"
                 transform="translate(480.8343,134.5144)"><path
                   id="path360"
                   style="fill:#e6e7e8;fill-opacity:1;fill-rule:nonzero;stroke:none"
                   d="m 0,0 c -0.152,0 -0.291,0.084 -0.363,0.218 -0.072,0.135 -0.063,0.298 0.021,0.423 l 1.443,2.152 c 0.078,0.116 0.207,0.182 0.342,0.182 0.04,0 0.08,-0.006 0.12,-0.018 C 1.736,2.904 1.855,2.744 1.855,2.563 V 0.412 C 1.855,0.185 1.67,0 1.443,0 Z" /></g></g></g></g><g
           id="g368"><g
             id="g370" /><g
             id="g382"><g
               style="opacity:0.5"
               id="g380"
               clip-path="url(#clipPath374)"><g
                 id="g378"
                 transform="translate(408.4575,124.7588)"><path
                   id="path376"
                   style="fill:#e6e7e8;fill-opacity:1;fill-rule:nonzero;stroke:none"
                   d="m 0,0 c -0.015,9.063 -0.603,18.587 -0.051,27.863 l -0.769,1.286 -1.311,2.099 -2.055,2.972 -0.632,0.883 c -0.487,0.679 -0.982,1.358 -1.5,1.999 l -0.765,0.945 c -0.726,0.9 -1.478,1.83 -2.248,2.67 l -1.611,1.75 -1.625,1.617 c -0.641,0.596 -1.367,1.218 -2.284,1.957 l -0.246,0.2 c -0.268,0.218 -0.535,0.434 -0.811,0.644 -0.037,0.029 -0.078,0.04 -0.119,0.04 -0.07,0 -0.143,-0.033 -0.211,-0.075 -0.107,-0.067 -0.147,-0.245 -0.122,-0.368 l 2.013,-4.713 1.917,-4.712 1.849,-4.776 1.771,-4.826 1.692,-4.87 1.613,-4.91 1.574,-5.093 L -2.517,7.74 -1.144,2.721 0.01,-1.77 C 0.005,-1.18 0.001,-0.59 0,0" /></g></g></g></g><g
           id="g384"><g
             id="g386" /><g
             id="g398"><g
               style="opacity:0.5"
               id="g396"
               clip-path="url(#clipPath390)"><g
                 id="g394"
                 transform="translate(566.8082,237.5063)"><path
                   id="path392"
                   style="fill:#e6e7e8;fill-opacity:1;fill-rule:nonzero;stroke:none"
                   d="m 0,0 c -0.047,0.033 -0.104,0.051 -0.161,0.051 -0.028,0 -0.056,-0.004 -0.082,-0.013 -0.893,-0.269 -1.713,-0.543 -2.552,-0.823 l -1.294,-0.436 c -1.498,-0.503 -3.018,-1.02 -4.523,-1.592 l -1.851,-0.782 c -2.162,-0.913 -4.395,-1.857 -6.523,-2.832 l -8.295,-4.22 -8.135,-4.824 c -2.39,-1.554 -5.209,-3.403 -8.01,-5.348 l -7.886,-5.895 -3.855,-3.142 -3.856,-3.253 -7.542,-6.906 c -0.711,-0.712 -1.454,-1.443 -2.206,-2.184 l -1.106,-1.094 c -1.169,-1.154 -2.306,-2.286 -3.419,-3.417 l -0.633,-0.64 -3.272,-3.609 c 3.739,2.671 7.596,5.11 11.52,7.267 7.763,4.268 16.056,7.203 24.507,9.723 l 2.013,2.123 7.099,6.937 7.278,6.573 7.418,6.276 7.588,5.896 7.76,5.507 c 0.075,0.053 0.113,0.079 0.113,0.171 0.009,0.035 0.037,0.143 0.027,0.271 C 0.117,-0.128 0.072,-0.049 0,0" /></g></g></g></g></g></g><g
       id="g400"><g
         clip-path="url(#clipPath406)"
         id="g402"><g
           transform="translate(345.2666,222.2202)"
           id="g408"><path
             id="path410"
             style="fill:#000000;fill-opacity:1;fill-rule:nonzero;stroke:none"
             d="M 0,0 C 0,4.435 -1.726,8.654 -4.787,11.819 -0.859,9.216 1.601,4.745 1.601,0 c 0,-4.148 -1.825,-8.081 -5.005,-10.79 -0.431,-0.368 -0.9,-0.718 -1.399,-1.044 C -1.753,-8.682 0,-4.445 0,0 m -5.603,-12.609 v -38.269 h -1.6 v 36.982 c 0.562,0.4 1.097,0.83 1.6,1.287 m -14.479,0.602 c -0.711,0.447 -1.384,0.958 -2.001,1.521 -2.97,2.693 -4.672,6.515 -4.672,10.486 0,6.894 5.135,12.9 11.948,13.984 C -7.993,12.9 -2.858,6.894 -2.858,0 c 0,-4.148 -1.825,-8.081 -5.005,-10.79 -0.601,-0.513 -1.274,-0.99 -2,-1.418 -0.122,-0.071 -0.199,-0.203 -0.199,-0.345 v -38.325 h -9.833 v 38.533 c 0,0.138 -0.072,0.268 -0.187,0.338 m -2.671,-1.626 v -39.704 c 0,-0.221 0.18,-0.4 0.4,-0.4 h 19.208 c 0.221,0 0.401,0.179 0.401,0.4 v 39.441 c 4.513,3.203 7.203,8.389 7.203,13.896 0,9.394 -7.643,17.036 -17.036,17.036 -0.694,0 -1.42,-0.055 -2.282,-0.171 -2.647,-0.356 -5.201,-1.343 -7.385,-2.853 C -26.858,10.818 -29.613,5.58 -29.613,0 c 0,-5.328 2.562,-10.416 6.86,-13.633" /></g><path
           id="path412"
           style="fill:#000000;fill-opacity:1;fill-rule:nonzero;stroke:none"
           d="m 145.153,135.327 h -40.947 v 21.151 h 40.947 z m 0.094,-4.917 c 0.953,-26.345 17.125,-49.981 41.339,-60.528 h -19.395 c -34.016,0 -61.613,26.57 -62.919,60.528 z m 259.045,-22.535 -1.759,6.858 -1.865,6.818 -1.977,6.774 -2.084,6.726 -2.191,6.669 -2.297,6.619 -2.408,6.556 -2.512,6.491 -2.606,6.405 -2.68,6.288 c 0.78,0.297 2.498,0.853 3.969,1.262 0.047,-0.146 0.1,-0.29 0.161,-0.429 l 2.711,-6.312 2.573,-6.322 2.482,-6.415 2.378,-6.474 2.27,-6.54 2.167,-6.592 2.057,-6.645 1.954,-6.694 1.844,-6.739 1.739,-6.777 1.627,-6.815 1.52,-6.847 1.412,-6.877 1.301,-6.903 1.193,-6.92 1.119,-7.145 c 0.244,-1.105 0.589,-2.217 1.087,-3.497 0.831,-2.139 1.879,-3.964 3.118,-5.425 1.021,-1.202 2.153,-2.168 3.372,-2.879 -3.448,0.007 -6.523,1.209 -8.231,3.219 -1.195,1.406 -2.17,3.263 -2.824,5.391 -0.141,0.461 -0.284,0.922 -0.387,1.381 l -1.093,7.023 -1.208,7.004 -1.317,6.98 -1.428,6.959 -1.54,6.929 z M 150.96,130.41 h 243.053 l 1.113,-3.596 1.952,-6.693 1.845,-6.739 1.738,-6.778 1.629,-6.814 1.52,-6.846 1.414,-6.879 1.299,-6.9 1.193,-6.922 0.372,-2.374 -11.664,-0.046 c -0.054,0.028 -0.155,0.059 -0.226,0.059 H 213.879 c -34.016,0 -61.613,26.57 -62.919,60.528 m 14.584,206.032 c 0.002,0 0.576,0.019 0.576,0.019 0.356,0.013 0.713,0.023 1.071,0.023 h 19.227 c -7.911,-3.459 -15.017,-8.312 -21.138,-14.438 l -0.121,-0.126 c -1.026,-1.034 -2.086,-2.187 -3.241,-3.523 l -0.288,-0.328 c -0.142,-0.159 -0.283,-0.319 -0.423,-0.486 -8.318,-9.922 -13.646,-21.94 -15.413,-34.766 h -40.881 c 4.331,28.396 28.094,50.836 56.586,53.399 l 0.386,0.022 c 1.04,0.086 2.139,0.148 3.274,0.183 z m 254.05,5.784 h -10.563 l -1.612,90.426 c 0,41.375 -33.661,75.036 -75.036,75.036 h -72.14 c -20.011,0 -38.845,-7.818 -53.033,-22.015 -14.189,-14.197 -22.002,-33.044 -22.002,-53.071 l 1.612,-90.376 h -19.629 c -0.299,0 -0.598,-0.009 -0.933,-0.02 l -1.875,94.273 c 0,49.672 40.411,90.083 90.084,90.083 h 83.692 c 49.672,0 90.083,-40.435 90.083,-90.14 l 1.89,-95.031 c -3.559,0.554 -7.104,0.835 -10.538,0.835 M 151.609,282.817 c 1.472,9.895 5.176,19.051 11.011,27.216 0.956,1.337 2.026,2.699 3.273,4.168 l 0.289,0.348 c 0.133,0.163 0.266,0.325 0.405,0.482 5.939,6.755 13.396,12.266 21.563,15.936 l 0.25,0.108 c 1.443,0.644 2.647,1.139 3.788,1.561 6.943,2.553 14.241,3.848 21.691,3.848 h 205.715 c 3.726,0 7.531,-0.348 11.307,-1.036 1.499,-0.272 2.834,-0.557 4.083,-0.872 24.741,-6.237 43.111,-26.538 46.859,-51.759 z m 108.634,219.131 h 72.14 c 38.209,0 69.295,-31.108 69.295,-69.347 l 1.613,-90.375 h -210.73 l -1.613,90.426 c 0,38.21 31.086,69.296 69.295,69.296 M 482.579,190.791 c -1.045,-1.04 -2.103,-2.083 -3.273,-3.235 l -0.185,-0.182 c -2.247,-2.216 -4.572,-4.509 -6.876,-6.878 l -10.401,-11.473 -6.428,-7.628 H 408.14 l -0.77,1.111 c -0.889,1.255 -1.896,2.676 -2.956,3.992 l -1.073,1.326 c -1.001,1.239 -2.036,2.521 -3.144,3.727 l -2.233,2.423 -2.288,2.278 c -1.512,1.407 -3.141,2.773 -4.84,4.061 l -0.354,0.27 c -0.49,0.369 -1.056,0.564 -1.636,0.564 -0.7,0 -1.359,-0.274 -1.908,-0.792 -0.097,-0.093 -0.191,-0.198 -0.283,-0.322 -2.001,-0.399 -6.634,-1.874 -7.272,-2.477 -1.292,-1.215 -1.686,-3.605 -0.896,-5.441 l 2.712,-6.312 1.795,-4.408 h -232.1 v 89.751 h 331.685 z m -50.914,-70.169 c 0.864,1.575 1.755,3.092 2.701,4.702 0.498,0.849 0.995,1.698 1.431,2.454 l 4.496,6.924 4.503,6.65 c 3.662,4.894 6.732,8.888 9.659,12.568 l 2.796,3.319 c -0.03,-0.038 -0.06,-0.076 -0.089,-0.115 -2.383,-3.045 -4.907,-6.353 -7.724,-10.119 l -4.613,-6.808 -4.55,-7.016 c -0.411,-0.711 -0.834,-1.431 -1.268,-2.17 l -0.256,-0.437 c -0.85,-1.447 -1.812,-3.086 -2.712,-4.728 l -4.11,-7.473 c -0.328,-0.621 -0.649,-1.246 -0.962,-1.872 -0.211,0.553 -0.426,1.114 -0.646,1.678 z m 10.218,23.586 -4.615,-6.809 -1.344,-2.072 h -13.037 l -0.183,0.393 c -0.178,0.386 -0.355,0.772 -0.546,1.163 l -3.199,6.295 -3.291,6.177 c -0.727,1.3 -1.499,2.586 -2.246,3.83 l -1.286,2.15 -0.715,1.143 h 39.878 c -2.89,-3.646 -5.889,-7.555 -9.416,-12.27 m -9.148,-13.798 -0.015,-0.026 c -0.46,-0.797 -0.925,-1.589 -1.491,-2.55 l -0.065,-0.111 c -0.889,-1.514 -1.809,-3.079 -2.682,-4.674 l -0.059,-0.108 c -0.108,0.26 -0.215,0.52 -0.325,0.784 l -2.931,6.685 z m -281.841,26.068 h 234.04 l 1.319,-3.412 2.379,-6.475 2.27,-6.539 1.553,-4.725 H 150.894 Z m 0,99.585 v 17.436 c 0,1.429 0.052,2.91 0.156,4.402 h 331.288 v -21.838 z m 324.645,-122.55 c -0.503,-0.813 -1.023,-1.648 -1.551,-2.49 -2.005,-3.208 -4.206,-6.67 -6.732,-10.592 l -8.018,-13.461 c -2.423,-4.442 -4.833,-8.639 -7.735,-13.671 l -2.628,-4.931 c -1.572,-2.957 -3.197,-6.016 -4.861,-9.028 -0.715,-1.386 -1.426,-2.78 -2.185,-4.267 l -0.786,-1.533 c -1.053,-2.055 -2.132,-4.133 -3.232,-6.226 l -0.397,-0.754 c -0.24,-0.463 -0.482,-0.925 -0.729,-1.387 l -0.397,-0.739 c -0.526,-0.981 -1.16,-1.876 -1.882,-2.659 -1.583,-1.713 -3.51,-2.655 -5.427,-2.655 -2.059,0 -4.025,1.034 -5.686,2.991 -0.619,0.727 -1.185,1.596 -1.728,2.654 -0.669,1.314 -1.169,2.703 -1.485,4.117 l -1.092,7.024 -1.209,7.004 -1.316,6.98 -1.429,6.958 -1.54,6.926 -1.645,6.899 -1.761,6.858 -1.865,6.818 -1.919,6.577 -2.14,6.922 -2.193,6.67 -2.298,6.619 -2.407,6.557 -2.511,6.489 -2.607,6.402 -2.131,5.005 0.19,-0.154 c 1.225,-0.988 2.193,-1.818 3.044,-2.607 l 2.182,-2.171 2.171,-2.359 c 1.024,-1.116 2.031,-2.364 3.022,-3.591 l 1.031,-1.274 c 0.696,-0.863 1.375,-1.795 2.005,-2.672 l 0.853,-1.191 2.772,-4.009 1.764,-2.825 1.243,-2.079 c 0.735,-1.222 1.495,-2.486 2.185,-3.719 l 3.248,-6.102 3.166,-6.22 c 0.617,-1.272 1.213,-2.573 1.868,-4.003 l 1.09,-2.367 2.868,-6.539 c 0.51,-1.231 1.007,-2.468 1.492,-3.704 l 0.718,-1.824 c 0.749,-1.933 1.455,-3.81 2.096,-5.533 l 0.519,-1.395 c 0.175,-0.466 0.61,-0.771 1.145,-0.794 0.47,0 0.904,0.275 1.105,0.7 l 0.616,1.302 c 0.848,1.793 1.756,3.696 2.716,5.515 l 4.094,7.443 c 0.888,1.62 1.815,3.197 2.712,4.722 0.498,0.845 0.991,1.687 1.431,2.451 l 4.456,6.866 4.532,6.691 c 3.607,4.818 6.654,8.785 9.588,12.482 0.013,0.016 0.023,0.034 0.031,0.051 0.014,0.011 0.028,0.023 0.041,0.037 l 10.047,11.923 10.304,11.365 0.903,0.911 c 1.606,1.635 3.249,3.269 4.936,4.934 l 1.777,1.757 c 1.022,1.007 2.039,2.011 3.002,2.975 l 10.88,9.962 5.558,4.689 5.558,4.528 11.378,8.506 c 4.002,2.778 8.08,5.455 11.534,7.702 l 11.727,6.953 11.955,6.083 c 3.049,1.397 6.24,2.744 9.325,4.048 l 2.735,1.156 c 2.132,0.81 4.377,1.574 6.494,2.286 l 1.98,0.666 c 0.588,0.196 1.178,0.392 1.782,0.588 l -9.839,-6.981 -10.997,-8.549 -10.748,-9.092 -10.547,-9.524 -10.289,-10.054 -10.02,-10.569 c -3.512,-4.005 -6.7,-7.599 -9.749,-10.993 l -9.496,-11.44 -9.196,-11.898 -8.89,-12.35 z M 447.22,76.958 c 1.58,2.854 3.162,5.829 4.691,8.707 l 0.105,0.195 c 0,0 1.85,3.483 2.657,4.991 2.669,4.621 5.266,9.141 7.714,13.627 l 7.934,13.322 c 3.176,4.933 5.716,8.944 7.988,12.61 h 4.204 C 481.608,106.983 467.942,86.226 446.763,76.064 Z M 104.206,256.063 v 17.436 c 0,1.357 0.056,2.798 0.172,4.402 h 40.933 c -0.106,-1.6 -0.158,-3.042 -0.158,-4.402 v -17.436 z m 0,-4.917 h 40.947 v -89.751 h -40.947 z m 484.656,-1.638 c -0.162,1.043 -0.613,1.953 -1.27,2.564 -0.549,0.503 -1.2,0.769 -1.884,0.769 -0.307,0 -0.616,-0.053 -0.92,-0.159 -1.354,-0.466 -2.716,-0.922 -4.205,-1.416 -2.673,-0.893 -5.437,-1.817 -8.217,-2.873 l -1.701,-0.723 c -1.847,-0.626 -3.819,-1.301 -5.855,-2.075 l -2.749,-1.162 c -3.088,-1.304 -6.283,-2.65 -9.525,-4.14 l -12.12,-6.168 -11.891,-7.047 c -3.441,-2.236 -7.527,-4.914 -11.744,-7.84 l -11.491,-8.592 -5.643,-4.597 -5.638,-4.758 -5.689,-5.21 v 77.418 c 0,31.786 -21.548,59.21 -52.422,66.745 l -1.916,96.235 c 0,52.838 -42.986,95.824 -95.823,95.824 h -83.692 c -25.555,0 -49.607,-9.984 -67.726,-28.113 -18.119,-18.129 -28.098,-42.194 -28.097,-67.768 l 1.879,-94.546 C 125.709,338.499 98.464,308.5 98.464,273.499 v -140.63 c 0,-0.505 0.017,-1.006 0.035,-1.507 l 0.019,-0.564 c 0.533,-17.893 7.919,-34.648 20.798,-47.18 12.908,-12.559 29.91,-19.476 47.875,-19.476 h 241.901 c 0.82,-3.135 2.183,-5.886 3.947,-7.965 2.401,-2.826 6.499,-4.514 10.961,-4.514 0.5,0 1.007,0.021 1.512,0.065 5.224,0.442 9.585,3.059 11.638,6.958 0.893,0.997 1.68,2.126 2.34,3.356 l 0.448,0.834 c 0.933,1.742 1.859,3.509 2.772,5.279 27.284,9.777 45.61,35.773 45.61,64.714 v 12.374 l 7.541,10.474 9.113,11.787 9.4,11.322 c 3.081,3.433 6.338,7.108 9.676,10.915 l 9.915,10.457 10.181,9.949 10.444,9.433 10.643,9.003 10.876,8.452 11.162,7.923 c 1.228,0.867 1.882,2.738 1.591,4.55" /></g></g></g></svg>